<svg xmlns="http://www.w3.org/2000/svg" width="42" height="42" viewBox="0 0 42 42">
  <g id="Group_16459" data-name="Group 16459" transform="translate(-0.178 -0.152)">
    <g id="Ellipse_179" data-name="Ellipse 179" transform="translate(0.178 0.152)" fill="none" stroke="#00c897" stroke-width="1">
      <circle cx="21" cy="21" r="21" stroke="none"/>
      <circle cx="21" cy="21" r="20.5" fill="none"/>
    </g>
    <path id="Path_27985" data-name="Path 27985" d="M10.549,10.7h.268a16.873,16.873,0,0,0,2.614-.184,7.421,7.421,0,0,0,.806-.2,1.428,1.428,0,0,0,.685-.612,1.515,1.515,0,0,0,.166-.689,3.068,3.068,0,0,0-.184-.723l-.071-.185a16.719,16.719,0,0,0-3.048-4.462l-.068-.066L11.4,3.284A1.406,1.406,0,0,0,10.539,3a1.339,1.339,0,0,0-.806.263,2.71,2.71,0,0,0-.253.212l-.3.287A17.15,17.15,0,0,0,6.309,8,3.81,3.81,0,0,0,6,9.015v.044a1.374,1.374,0,0,0,.751,1.214,2.942,2.942,0,0,0,.593.177l.412.086A20.673,20.673,0,0,0,10.549,10.7Zm-1.155,4.8a1.15,1.15,0,0,0,2.3,0l-.248-2.8a.9.9,0,0,0-1.8,0Z" transform="translate(10.364 11.091)" fill="#00c897" fill-rule="evenodd"/>
  </g>
</svg>
