<svg xmlns="http://www.w3.org/2000/svg" width="21.865" height="21.347" viewBox="0 0 21.865 21.347">
  <g id="Group_16408" data-name="Group 16408" transform="translate(0.867 0.867)">
    <path id="Path_27963" data-name="Path 27963" d="M2.75,3.25l2.275.394L6.078,16.19A1.968,1.968,0,0,0,8.046,18h11.93a1.969,1.969,0,0,0,1.952-1.691l1.038-7.172a1.467,1.467,0,0,0-1.241-1.661c-.07-.01-16.335-.015-16.335-.015" transform="translate(-2.75 -3.25)" fill="none" stroke="#130f26" stroke-linecap="round" stroke-linejoin="round" stroke-width="1.5"/>
    <path id="Path_27964" data-name="Path 27964" d="M14.125,10.795h3.032" transform="translate(-1.686 -2.544)" fill="none" stroke="#130f26" stroke-linecap="round" stroke-linejoin="round" stroke-width="1.5"/>
    <path id="Path_27965" data-name="Path 27965" d="M7.2,20.2a.6.6,0,1,1-.595.595A.595.595,0,0,1,7.2,20.2Z" transform="translate(-2.389 -1.664)" fill="#130f26" stroke="#130f26" stroke-linecap="round" stroke-linejoin="round" stroke-width="1.5" fill-rule="evenodd"/>
    <path id="Path_27966" data-name="Path 27966" d="M18.486,20.2a.6.6,0,1,1-.595.595A.6.6,0,0,1,18.486,20.2Z" transform="translate(-1.333 -1.664)" fill="#130f26" stroke="#130f26" stroke-linecap="round" stroke-linejoin="round" stroke-width="1.5" fill-rule="evenodd"/>
  </g>
</svg>
