<svg xmlns="http://www.w3.org/2000/svg" xmlns:xlink="http://www.w3.org/1999/xlink" width="113" height="113" viewBox="0 0 113 113">
  <defs>
    <filter id="Ellipse_10" x="0" y="0" width="113" height="113" filterUnits="userSpaceOnUse">
      <feOffset dy="3" input="SourceAlpha"/>
      <feGaussianBlur stdDeviation="7.5" result="blur"/>
      <feFlood flood-color="#000849" flood-opacity="0.251"/>
      <feComposite operator="in" in2="blur"/>
      <feComposite in="SourceGraphic"/>
    </filter>
  </defs>
  <g id="Group_16422" data-name="Group 16422" transform="translate(-903.5 -998.5)">
    <g id="Group_17" data-name="Group 17" transform="translate(0 -3)">
      <g transform="matrix(1, 0, 0, 1, 903.5, 1001.5)" filter="url(#Ellipse_10)">
        <circle id="Ellipse_10-2" data-name="Ellipse 10" cx="34" cy="34" r="34" transform="translate(22.5 19.5)" fill="#fff"/>
      </g>
    </g>
    <path id="Path_27970" data-name="Path 27970" d="M10.483,4.5l.327,3.7a1.191,1.191,0,0,0,2.382,0l.327-3.7a1.518,1.518,0,0,0-3.036,0Zm.268,16.011c.056.051.1.091.12.111A1.856,1.856,0,0,0,12.008,21a1.768,1.768,0,0,0,1.064-.347,5.694,5.694,0,0,0,.554-.491A22.044,22.044,0,0,0,17.592,14.4,5.027,5.027,0,0,0,18,13.058V13a1.815,1.815,0,0,0-.991-1.6,6.036,6.036,0,0,0-1.168-.312c-.095-.019-.156-.031-.16-.034a27.294,27.294,0,0,0-3.688-.216,23.633,23.633,0,0,0-3.806.244,9.8,9.8,0,0,0-1.064.261,1.886,1.886,0,0,0-.9.808,2,2,0,0,0-.219.91,4.829,4.829,0,0,0,.336,1.2,22.073,22.073,0,0,0,4.024,5.891C10.493,20.28,10.645,20.418,10.75,20.514Z" transform="translate(948 1040)" fill="#17262b" fill-rule="evenodd"/>
  </g>
</svg>
