<svg xmlns="http://www.w3.org/2000/svg" width="15.376" height="15.376" viewBox="0 0 15.376 15.376">
  <path id="Path_36099" data-name="Path 36099" d="M2,9.7a7.7,7.7,0,1,1,3.906,6.676A1.307,1.307,0,0,0,4.76,16.1l-1.553.462a.48.48,0,0,1-.63-.6l.515-1.725a.806.806,0,0,0-.054-.693A8.14,8.14,0,0,1,2,9.7Zm6.689,0a.984.984,0,1,0,1.968.008A.984.984,0,0,0,8.689,9.7Zm3.544.008a.984.984,0,1,0,.984-.986A.987.987,0,0,0,12.233,9.707Zm-6.1.986a.992.992,0,0,1-.984-.986.984.984,0,1,1,1.968,0A.992.992,0,0,1,6.129,10.693Z" transform="translate(-2 -2)" fill="#fff" fill-rule="evenodd"/>
</svg>
