<svg id="Group_16347" data-name="Group 16347" xmlns="http://www.w3.org/2000/svg" width="21.5" height="19.5" viewBox="0 0 21.5 19.5">
  <path id="Path_27907" data-name="Path 27907" d="M11.776,13.465A3.042,3.042,0,0,1,9.882,12.8L5.4,9.186a.75.75,0,1,1,.941-1.168l4.481,3.612a1.544,1.544,0,0,0,1.923,0L17.178,8.02a.75.75,0,1,1,.947,1.164L13.681,12.8A3.059,3.059,0,0,1,11.776,13.465Z" transform="translate(-1 -2)" fill-rule="evenodd"/>
  <g id="Group_16346" data-name="Group 16346">
    <path id="Path_27908" data-name="Path 27908" d="M6.839,20h9.82s.01,0,.016,0A4.049,4.049,0,0,0,19.6,18.817,5.049,5.049,0,0,0,21,15.188V8.32c0-2.793-1.826-4.82-4.341-4.82H6.841C4.326,3.5,2.5,5.527,2.5,8.32v6.868a5.053,5.053,0,0,0,1.4,3.629A4.05,4.05,0,0,0,6.825,20Zm-.017,1.5a5.524,5.524,0,0,1-3.985-1.62A6.541,6.541,0,0,1,1,15.188V8.32C1,4.717,3.511,2,6.841,2h9.818C19.989,2,22.5,4.717,22.5,8.32v6.868a6.541,6.541,0,0,1-1.837,4.692,5.529,5.529,0,0,1-3.988,1.62H6.822Z" transform="translate(-1 -2)" fill-rule="evenodd"/>
  </g>
</svg>
