<svg id="credit-card" xmlns="http://www.w3.org/2000/svg" width="51.433" height="49.723" viewBox="0 0 51.433 49.723">
  <g id="Group_16285" data-name="Group 16285" transform="translate(0 11.802)">
    <path id="Path_1031" data-name="Path 1031" d="M63.042,331.067a1,1,0,0,0-1,1v8.573a1,1,0,0,0,1,1H74.375a1,1,0,0,0,1-1v-8.573a1,1,0,0,0-1-1ZM73.37,339.64H64.046v-6.563H73.37Z" transform="translate(-55.805 -310.467)" fill="#fff"/>
    <g id="Group_16284" data-name="Group 16284">
      <path id="Path_1032" data-name="Path 1032" d="M51.433,130.543A4.545,4.545,0,0,0,46.9,126H36.084l-.825.628c0,.18.819,1.207.809,1.381H46.9a2.534,2.534,0,0,1,2.524,2.538v3.022H33.434a13.9,13.9,0,0,1-2.583,2.009H49.424V139.5H2.009v-3.925H21.87a13.9,13.9,0,0,1-2.583-2.009H2.009v-3.022A2.534,2.534,0,0,1,4.533,128h12.12c-.011-.174,1.112-.924,1.112-1.1L16.637,126H4.533A4.545,4.545,0,0,0,0,130.543v28.826a4.545,4.545,0,0,0,4.533,4.548H46.9a4.545,4.545,0,0,0,4.533-4.548v-8.91c0-.021,0-.043,0-.064s0-.042,0-.064V130.543Zm-2.009,19.916v8.91a2.534,2.534,0,0,1-2.524,2.538H4.533a2.534,2.534,0,0,1-2.524-2.538v-17.86H49.424v8.823q0,.032,0,.064T49.424,150.459Z" transform="translate(0 -125.995)" fill="#fff"/>
      <path id="Path_1033" data-name="Path 1033" d="M342.458,326.98a5.7,5.7,0,1,0,5.685,5.7A5.7,5.7,0,0,0,342.458,326.98Zm0,9.394a3.692,3.692,0,1,1,3.676-3.692A3.688,3.688,0,0,1,342.458,336.374Z" transform="translate(-302.942 -306.79)" fill="#fff"/>
    </g>
  </g>
  <g id="Group_16287" data-name="Group 16287" transform="translate(16.637 0)">
    <g id="Group_16286" data-name="Group 16286">
      <path id="Path_1034" data-name="Path 1034" d="M182.458,12.073a6.253,6.253,0,0,1-5.651-3.559h-2.936a6.274,6.274,0,0,1-8.256,3V21.794c0,7.522,9.724,10.09,9.724,10.09s9.724-2.567,9.724-10.09V11.509A6.258,6.258,0,0,1,182.458,12.073Z" transform="translate(-165.615 -8.514)" fill="#fff"/>
    </g>
    <path id="Path_1035" data-name="Path 1035" d="M234.17,99.417a1,1,0,0,1-.708-.292l-1.795-1.784a1,1,0,1,1,1.417-1.425l1.021,1.016,2.886-3.422a1,1,0,0,1,1.536,1.3l-3.589,4.255a1,1,0,0,1-.724.356h-.044Z" transform="translate(-224.765 -84.65)" fill="#00c897"/>
  </g>
</svg>
