<svg id="customer-service" xmlns="http://www.w3.org/2000/svg" width="49.906" height="49.412" viewBox="0 0 49.906 49.412">
  <g id="Group_16293" data-name="Group 16293" transform="translate(12.286 0)">
    <path id="Path_1041" data-name="Path 1041" d="M142.247,2.536a21.375,21.375,0,0,0-16.2,7.406,5.912,5.912,0,0,1,1.521,1.1l2.761,2.769a15.636,15.636,0,1,1,22.009,22.063l2.218,2.224a5.9,5.9,0,0,1,1.411,2.264A21.394,21.394,0,0,0,142.247,2.536Z" transform="translate(-126.043 -2.536)" fill="#fff"/>
  </g>
  <g id="Group_16295" data-name="Group 16295" transform="translate(0 5.799)">
    <path id="Path_1042" data-name="Path 1042" d="M41.485,91.111,38.3,87.917a6.649,6.649,0,0,0-9.424,0L26,90.8,14.8,79.579l2.88-2.89a6.7,6.7,0,0,0,0-9.442L14.5,64.054a6.871,6.871,0,0,0-9.739,0,.97.97,0,0,0-.075.085L3.124,66.117A14.6,14.6,0,0,0,.215,72.609,14.233,14.233,0,0,0,.772,79.7a9.788,9.788,0,0,0,2.118,3.737l19.278,19.325a8.744,8.744,0,0,0,2.774,1.762,13.936,13.936,0,0,0,5.479,1.117,14.379,14.379,0,0,0,8.751-2.987l2.218-1.7a.971.971,0,0,0,.1-.085A6.92,6.92,0,0,0,41.485,91.111Zm-1.337,8.337-2.164,1.663a12.278,12.278,0,0,1-12.277,1.623,6.855,6.855,0,0,1-2.159-1.345L4.27,82.064a7.929,7.929,0,0,1-1.655-3,12.373,12.373,0,0,1,2.04-11.743l1.523-1.931a4.921,4.921,0,0,1,6.939.038L16.3,68.624a4.744,4.744,0,0,1,0,6.689l-3.567,3.578a.975.975,0,0,0,0,1.377l12.576,12.6a.975.975,0,0,0,1.38,0l3.567-3.578a4.7,4.7,0,0,1,6.663,0L40.1,92.487A4.967,4.967,0,0,1,40.148,99.448Z" transform="translate(0 -62.031)" fill="#fff"/>
    <g id="Group_16294" data-name="Group 16294" transform="translate(21.885 9.527)">
      <path id="Path_1043" data-name="Path 1043" d="M302.4,165.807h-.109c.012-2.051.018-4.244-.007-4.549a1.582,1.582,0,0,0-1.052-1.428,1.523,1.523,0,0,0-1.64.6c-.485.6-2.725,4.654-3.4,5.882a.975.975,0,0,0,.854,1.444h3.283c0,.547-.008,1.071-.012,1.544a.975.975,0,0,0,.966.983h.009a.975.975,0,0,0,.974-.966c0-.292.007-.858.013-1.561h.122a.975.975,0,0,0,0-1.949Zm-2.059,0h-1.643c.609-1.094,1.2-2.144,1.654-2.919C300.348,163.688,300.343,164.728,300.337,165.807Z" transform="translate(-289.092 -159.77)" fill="#fff"/>
      <path id="Path_1044" data-name="Path 1044" d="M230.163,169.759c-.857.011-1.767.018-2.521.019.473-.636,1.132-1.539,2.023-2.817a6.519,6.519,0,0,0,1.057-2.2,3.42,3.42,0,0,0,.067-.55,3.156,3.156,0,0,0-6.254-.612.975.975,0,0,0,1.913.374,1.206,1.206,0,0,1,2.39.185l-.027.208a4.75,4.75,0,0,1-.746,1.478c-1.351,1.938-2.157,3-2.59,3.567-.535.7-.779,1.025-.613,1.564a1.014,1.014,0,0,0,.658.667,7.083,7.083,0,0,0,1.913.085c.651,0,1.538-.006,2.754-.022a.975.975,0,0,0-.024-1.949Z" transform="translate(-224.516 -160.923)" fill="#fff"/>
    </g>
  </g>
</svg>
