<svg id="delivery-truck" xmlns="http://www.w3.org/2000/svg" width="55.336" height="49.441" viewBox="0 0 55.336 49.441">
  <g id="Group_16282" data-name="Group 16282" transform="translate(6.484 6.36)">
    <path id="Path_1029" data-name="Path 1029" d="M107.768,113.6h-.033v-6.292a.984.984,0,0,0-.078-.4l-3.918-10.364a1.081,1.081,0,0,0-1.011-.7H96.335V89.065a2.947,2.947,0,0,0-2.943-2.945H74.35a11.58,11.58,0,0,1,.837,2.162H93.392a.783.783,0,0,1,.781.783V113.6h-30.9V101.8a11.47,11.47,0,0,1-2.162-.564V113.6h-.033A1.081,1.081,0,0,0,60,114.678v6.648a1.081,1.081,0,0,0,1.081,1.081h5.016a5.6,5.6,0,1,0,10.964,0H92.971a5.6,5.6,0,1,0,10.964,0h3.832a1.081,1.081,0,0,0,1.081-1.081v-6.648a1.081,1.081,0,0,0-1.081-1.081ZM96.335,98h5.646l3.109,8.224H96.335Zm0,10.386h9.238V113.6H96.335Zm-24.76,18.653a3.469,3.469,0,1,1,3.441-3.469A3.459,3.459,0,0,1,71.576,127.039Zm26.878,0a3.469,3.469,0,1,1,3.441-3.469A3.459,3.459,0,0,1,98.453,127.039Zm8.234-6.794h-3.715a5.581,5.581,0,0,0-9.037,0H76.094a5.581,5.581,0,0,0-9.037,0h-4.9v-4.486h44.528Z" transform="translate(-59.997 -86.12)" fill="#fff"/>
  </g>
  <g id="Group_16283" data-name="Group 16283" transform="translate(0 0)">
    <ellipse id="Ellipse_6" data-name="Ellipse 6" cx="11.587" cy="11.632" rx="11.587" ry="11.632" fill="#fff"/>
    <path id="Path_1030" data-name="Path 1030" d="M100.3,103.907H98.289a1.081,1.081,0,0,1-1.081-1.081V99.454a1.081,1.081,0,1,1,2.162,0v2.292h.935a1.081,1.081,0,1,1,0,2.162Z" transform="translate(-86.702 -90.688)" fill="#00c897"/>
  </g>
</svg>
