<svg xmlns="http://www.w3.org/2000/svg" width="31.637" height="31.636" viewBox="0 0 31.637 31.636">
  <g id="Group_16492" data-name="Group 16492" transform="translate(1 1)">
    <path id="Path_27997" data-name="Path 27997" d="M6.025,9.647A3.623,3.623,0,0,1,9.647,6.024h1.648a3.626,3.626,0,0,0,2.552-1.052L15,3.819A3.623,3.623,0,0,1,20.122,3.8l0,0,.014.013,1.153,1.153a3.62,3.62,0,0,0,2.552,1.052h1.647a3.623,3.623,0,0,1,3.623,3.623v1.645a3.623,3.623,0,0,0,1.052,2.553L31.318,15a3.623,3.623,0,0,1,.016,5.124l0,0-.014.014-1.153,1.153a3.613,3.613,0,0,0-1.052,2.55v1.648a3.621,3.621,0,0,1-3.621,3.621H23.839a3.618,3.618,0,0,0-2.552,1.054l-1.153,1.152a3.622,3.622,0,0,1-5.121.019l0,0-.014-.014-1.152-1.152a3.625,3.625,0,0,0-2.552-1.054H9.647a3.621,3.621,0,0,1-3.621-3.621V23.838a3.615,3.615,0,0,0-1.054-2.55L3.82,20.135A3.62,3.62,0,0,1,3.8,15.014s0,0,0,0L3.82,15l1.152-1.153a3.622,3.622,0,0,0,1.054-2.553V9.647" transform="translate(-2.75 -2.75)" fill="none" stroke="#a7a7a7" stroke-linecap="round" stroke-linejoin="round" stroke-width="2"/>
    <path id="Path_27998" data-name="Path 27998" d="M9.43,17.664l8.233-8.233" transform="translate(1.269 1.27)" fill="none" stroke="#a7a7a7" stroke-linecap="round" stroke-linejoin="round" stroke-width="2"/>
    <path id="Path_27999" data-name="Path 27999" d="M14.5,14.5h.014" transform="translate(4.317 4.32)" fill="none" stroke="#a7a7a7" stroke-linecap="round" stroke-linejoin="round" stroke-width="3.5"/>
    <path id="Path_28000" data-name="Path 28000" d="M9.5,9.5H9.51" transform="translate(1.309 1.311)" fill="none" stroke="#a7a7a7" stroke-linecap="round" stroke-linejoin="round" stroke-width="3.5"/>
  </g>
</svg>
