<svg xmlns="http://www.w3.org/2000/svg" width="17.717" height="17.717" viewBox="0 0 17.717 17.717">
  <g id="Group_16368" data-name="Group 16368" transform="translate(0.75 0.75)">
    <path id="Path_27929" data-name="Path 27929" d="M3,6.153C3,3.788,3.025,3,6.153,3s3.153.788,3.153,3.153.01,3.153-3.153,3.153S3,8.519,3,6.153Z" transform="translate(-3 -3)" fill="none" stroke="#130f26" stroke-linecap="round" stroke-linejoin="round" stroke-width="1.5" fill-rule="evenodd"/>
    <path id="Path_27930" data-name="Path 27930" d="M14,6.153C14,3.788,14.025,3,17.153,3s3.153.788,3.153,3.153.01,3.153-3.153,3.153S14,8.519,14,6.153Z" transform="translate(-4.089 -3)" fill="none" stroke="#130f26" stroke-linecap="round" stroke-linejoin="round" stroke-width="1.5" fill-rule="evenodd"/>
    <path id="Path_27931" data-name="Path 27931" d="M3,17.153C3,14.788,3.025,14,6.153,14s3.153.788,3.153,3.153.01,3.153-3.153,3.153S3,19.519,3,17.153Z" transform="translate(-3 -4.089)" fill="none" stroke="#130f26" stroke-linecap="round" stroke-linejoin="round" stroke-width="1.5" fill-rule="evenodd"/>
    <path id="Path_27932" data-name="Path 27932" d="M14,17.153C14,14.788,14.025,14,17.153,14s3.153.788,3.153,3.153.01,3.153-3.153,3.153S14,19.519,14,17.153Z" transform="translate(-4.089 -4.089)" fill="none" stroke="#130f26" stroke-linecap="round" stroke-linejoin="round" stroke-width="1.5" fill-rule="evenodd"/>
  </g>
</svg>
