<svg xmlns="http://www.w3.org/2000/svg" width="16.906" height="17.817" viewBox="0 0 16.906 17.817">
  <path id="Path_28025" data-name="Path 28025" d="M7.9,17.221V14.734a1.156,1.156,0,0,1,1.154-1.151h2.34a1.157,1.157,0,0,1,1.162,1.151h0v2.494a.993.993,0,0,0,.975.989h1.56a2.8,2.8,0,0,0,2.816-2.788h0V8.355a1.978,1.978,0,0,0-.78-1.545L11.791,2.556a2.579,2.579,0,0,0-3.2,0L3.28,6.819A1.963,1.963,0,0,0,2.5,8.363v7.066a2.8,2.8,0,0,0,2.816,2.788h1.56a1,1,0,0,0,1.006-1h0" transform="translate(-1.75 -1.15)" fill="none" stroke="#130f26" stroke-linecap="round" stroke-linejoin="round" stroke-width="1.5"/>
</svg>
