<svg xmlns="http://www.w3.org/2000/svg" width="20.353" height="20.572" viewBox="0 0 20.353 20.572">
  <path id="Path_27740" data-name="Path 27740" d="M66.9,70.572H51.653A2.493,2.493,0,0,1,49.1,68.019V52.553A2.493,2.493,0,0,1,51.653,50H66.9a2.493,2.493,0,0,1,2.553,2.553V68.019A2.584,2.584,0,0,1,66.9,70.572M59.24,56.2a3.933,3.933,0,0,0-3.575,2.334h0v.073c-.073.146-.073.219-.219.292v.146c0,.073-.073.146-.073.219v.146a.268.268,0,0,0-.073.219v.146a2.579,2.579,0,0,0-.073.438,4.012,4.012,0,1,0,8.025,0c0-.146-.073-.292-.073-.438V59.63a.268.268,0,0,0-.073-.219v-.146c0-.073-.073-.146-.073-.219V58.9c-.146-.073-.146-.146-.219-.219v-.073h0A4,4,0,0,0,59.24,56.2m7.879-2.845A1.043,1.043,0,0,0,66.1,52.334h-1.97a1.043,1.043,0,0,0-1.021,1.021V55.4a1.043,1.043,0,0,0,1.021,1.021H66.1A1.043,1.043,0,0,0,67.119,55.4V53.356Zm0,5.253H65.3a13.023,13.023,0,0,1,.146,1.678,6.2,6.2,0,1,1-12.4,0,13.024,13.024,0,0,1,.146-1.678H51.361v8.608a1.043,1.043,0,0,0,1.021,1.021H66.1a1.043,1.043,0,0,0,1.021-1.021V58.608Z" transform="translate(-49.1 -50)" fill="#fff" fill-rule="evenodd"/>
</svg>
