<svg xmlns="http://www.w3.org/2000/svg" width="36.277" height="35.245" viewBox="0 0 36.277 35.245">
  <path id="Path_1155" data-name="Path 1155" d="M518.873,85.915V73.134c0-2.582-.775-5.164-3.873-5.164-2.969,0-4.26,2.582-4.26,5.293V85.915h-8.133v-23.5h8.133v3.228c2.195-2.711,4-3.873,7.359-3.873,3.228,0,8.779,1.549,8.779,10.974v13.3h-8v-.129ZM495.118,58.933c-2.582,0-4.518-1.678-4.518-4a4.258,4.258,0,0,1,4.518-4.131,4.34,4.34,0,0,1,4.519,4.131,4.24,4.24,0,0,1-4.519,4m4,26.982h-8.133v-23.5h8.133v23.5Z" transform="translate(-490.6 -50.8)" fill="#151d3b" fill-rule="evenodd"/>
</svg>
