<svg xmlns="http://www.w3.org/2000/svg" width="23.106" height="22.449" viewBox="0 0 23.106 22.449">
  <path id="Path_1155" data-name="Path 1155" d="M508.608,73.166V65.026c0-1.645-.493-3.289-2.467-3.289-1.891,0-2.714,1.645-2.714,3.371v8.058h-5.18V58.2h5.18v2.056c1.4-1.727,2.549-2.467,4.687-2.467,2.056,0,5.592.987,5.592,6.99v8.47h-5.1v-.082ZM493.478,55.98a2.65,2.65,0,0,1-2.878-2.549,2.712,2.712,0,0,1,2.878-2.631,2.764,2.764,0,0,1,2.878,2.631,2.7,2.7,0,0,1-2.878,2.549m2.549,17.186h-5.18V58.2h5.18V73.166Z" transform="translate(-490.6 -50.8)" fill="#fff" fill-rule="evenodd"/>
</svg>
