<svg id="Group_16588" data-name="Group 16588" xmlns="http://www.w3.org/2000/svg" width="30.342" height="30.342" viewBox="0 0 30.342 30.342">
  <path id="Path_27923" data-name="Path 27923" d="M15.171,0A15.171,15.171,0,1,1,0,15.171,15.171,15.171,0,0,1,15.171,0Z" transform="translate(0)" fill="#00c897" opacity="0.2"/>
  <path id="Path_36070" data-name="Path 36070" d="M11.279,0A11.4,11.4,0,0,1,21.394,6.284a10.91,10.91,0,0,1,1.164,4.995A11.279,11.279,0,1,1,11.279,0Z" transform="translate(3.757 3.89)" fill="#00c897"/>
  <g id="Group_16581" data-name="Group 16581" transform="translate(9.649 9.398)">
    <path id="Path_36019" data-name="Path 36019" d="M11.036,7.94a1.1,1.1,0,1,0,1.1,1.1A1.1,1.1,0,0,0,11.036,7.94Zm0,3.133a2.036,2.036,0,1,1,2.036-2.036A2.038,2.038,0,0,1,11.036,11.073Z" transform="translate(-5.867 -3.867)" fill="#fff" fill-rule="evenodd"/>
    <g id="Group_16578" data-name="Group 16578" transform="translate(0 0)">
      <path id="Path_36020" data-name="Path 36020" d="M9.169,2.94A4.255,4.255,0,0,0,4.94,7.209c0,2.995,3.524,5.912,4.23,6.067.706-.156,4.23-3.073,4.23-6.067A4.255,4.255,0,0,0,9.169,2.94Zm0,11.279C8.045,14.219,4,10.74,4,7.209a5.17,5.17,0,1,1,10.339,0C14.339,10.74,10.294,14.219,9.169,14.219Z" transform="translate(-4 -2)" fill="#fff" fill-rule="evenodd"/>
    </g>
  </g>
  <circle id="Ellipse_180" data-name="Ellipse 180" cx="1.88" cy="1.88" r="1.88" transform="translate(16.855 8.772)" fill="#ef4056"/>
</svg>
