<svg xmlns="http://www.w3.org/2000/svg" width="36.918" height="36.918" viewBox="0 0 36.918 36.918">
  <g id="Group_16368" data-name="Group 16368" transform="translate(1.5 1.5)">
    <path id="Path_27929" data-name="Path 27929" d="M3,9.6C3,4.648,3.053,3,9.6,3s6.6,1.648,6.6,6.6.021,6.6-6.6,6.6S3,14.542,3,9.6Z" transform="translate(-3 -3)" fill="none" stroke="#130f26" stroke-linecap="round" stroke-linejoin="round" stroke-width="3" fill-rule="evenodd"/>
    <path id="Path_27930" data-name="Path 27930" d="M14,9.6c0-4.947.053-6.6,6.6-6.6s6.6,1.648,6.6,6.6.021,6.6-6.6,6.6S14,14.542,14,9.6Z" transform="translate(6.728 -3)" fill="none" stroke="#130f26" stroke-linecap="round" stroke-linejoin="round" stroke-width="3" fill-rule="evenodd"/>
    <path id="Path_27931" data-name="Path 27931" d="M3,20.6c0-4.947.053-6.6,6.6-6.6s6.6,1.648,6.6,6.6.021,6.6-6.6,6.6S3,25.542,3,20.6Z" transform="translate(-3 6.728)" fill="none" stroke="#130f26" stroke-linecap="round" stroke-linejoin="round" stroke-width="3" fill-rule="evenodd"/>
    <path id="Path_27932" data-name="Path 27932" d="M14,20.6c0-4.947.053-6.6,6.6-6.6s6.6,1.648,6.6,6.6.021,6.6-6.6,6.6S14,25.542,14,20.6Z" transform="translate(6.728 6.728)" fill="none" stroke="#130f26" stroke-linecap="round" stroke-linejoin="round" stroke-width="3" fill-rule="evenodd"/>
  </g>
</svg>
