<svg xmlns="http://www.w3.org/2000/svg" width="18.958" height="20.499" viewBox="0 0 18.958 20.499">
  <g id="Group_16673" data-name="Group 16673" transform="translate(1 1)">
    <path id="Path_36062" data-name="Path 36062" d="M19.324,9.468s-.543,6.735-.858,9.572a2.238,2.238,0,0,1-2.358,2.174c-2.609.047-5.221.05-7.829-.005A2.214,2.214,0,0,1,5.99,19.047c-.317-2.862-.857-9.579-.857-9.579" transform="translate(-3.75 -2.75)" fill="none" stroke="#ef4056" stroke-linecap="round" stroke-linejoin="round" stroke-width="2"/>
    <path id="Path_36063" data-name="Path 36063" d="M20.708,6.239H3.75" transform="translate(-3.75 -2.75)" fill="none" stroke="#ef4056" stroke-linecap="round" stroke-linejoin="round" stroke-width="2"/>
    <path id="Path_36064" data-name="Path 36064" d="M17.439,6.239a1.648,1.648,0,0,1-1.615-1.324L15.581,3.7a1.28,1.28,0,0,0-1.237-.949H10.111A1.28,1.28,0,0,0,8.874,3.7L8.631,4.915A1.648,1.648,0,0,1,7.016,6.239" transform="translate(-3.75 -2.75)" fill="none" stroke="#ef4056" stroke-linecap="round" stroke-linejoin="round" stroke-width="2"/>
  </g>
</svg>
