<svg xmlns="http://www.w3.org/2000/svg" width="13.733" height="14.981" viewBox="0 0 13.733 14.981">
  <g id="share" transform="translate(0 0)">
    <path id="Path_27906" data-name="Path 27906" d="M318.725,18.029A2.029,2.029,0,1,1,316.7,16,2.029,2.029,0,0,1,318.725,18.029Zm0,0" transform="translate(-305.461 -15.532)" fill="#17262b"/>
    <path id="Path_27907" data-name="Path 27907" d="M301.165,4.994a2.5,2.5,0,1,1,2.5-2.5A2.5,2.5,0,0,1,301.165,4.994Zm0-4.058A1.561,1.561,0,1,0,302.725,2.5,1.562,1.562,0,0,0,301.165.936Zm0,0" transform="translate(-289.929 -0.001)" fill="#17262b"/>
    <path id="Path_27908" data-name="Path 27908" d="M318.725,359.361a2.029,2.029,0,1,1-2.029-2.029A2.029,2.029,0,0,1,318.725,359.361Zm0,0" transform="translate(-305.461 -346.877)" fill="#17262b"/>
    <path id="Path_27909" data-name="Path 27909" d="M301.165,346.326a2.5,2.5,0,1,1,2.5-2.5A2.5,2.5,0,0,1,301.165,346.326Zm0-4.057a1.561,1.561,0,1,0,1.561,1.561A1.562,1.562,0,0,0,301.165,342.268Zm0,0" transform="translate(-289.929 -331.345)" fill="#17262b"/>
    <path id="Path_27910" data-name="Path 27910" d="M20.058,188.7a2.029,2.029,0,1,1-2.029-2.029A2.029,2.029,0,0,1,20.058,188.7Zm0,0" transform="translate(-15.532 -181.206)" fill="#17262b"/>
    <path id="Path_27911" data-name="Path 27911" d="M2.5,175.662a2.5,2.5,0,1,1,2.5-2.5,2.5,2.5,0,0,1-2.5,2.5Zm0-4.057a1.561,1.561,0,1,0,1.561,1.561A1.562,1.562,0,0,0,2.5,171.6Zm0,0" transform="translate(0 -165.675)" fill="#17262b"/>
    <path id="Path_27912" data-name="Path 27912" d="M114.973,94.766a.624.624,0,0,1-.31-1.167l5.792-3.3a.624.624,0,1,1,.618,1.085l-5.792,3.3A.62.62,0,0,1,114.973,94.766Zm0,0" transform="translate(-111.002 -87.575)" fill="#17262b"/>
    <path id="Path_27913" data-name="Path 27913" d="M120.787,270.77a.621.621,0,0,1-.308-.082l-5.792-3.3a.624.624,0,0,1,.618-1.085l5.792,3.3a.624.624,0,0,1-.31,1.167Zm0,0" transform="translate(-111.025 -258.429)" fill="#17262b"/>
  </g>
</svg>
