<svg xmlns="http://www.w3.org/2000/svg" width="28.989" height="28.302" viewBox="0 0 28.989 28.302">
  <g id="Group_16408" data-name="Group 16408" transform="translate(-1.594 -2.094)">
    <path id="Path_27963" data-name="Path 27963" d="M2.75,3.25l3.014.522L7.16,20.4a2.608,2.608,0,0,0,2.609,2.4h15.81a2.609,2.609,0,0,0,2.587-2.241l1.375-9.5a1.944,1.944,0,0,0-1.645-2.2c-.093-.013-21.647-.02-21.647-.02" transform="translate(0 0)" fill="none" stroke="#130f26" stroke-linecap="round" stroke-linejoin="round" stroke-width="2"/>
    <path id="Path_27964" data-name="Path 27964" d="M14.125,10.795h4.019" transform="translate(5.11 3.389)" fill="none" stroke="#130f26" stroke-linecap="round" stroke-linejoin="round" stroke-width="2"/>
    <path id="Path_27965" data-name="Path 27965" d="M7.4,20.2a.789.789,0,1,1-.788.788A.788.788,0,0,1,7.4,20.2Z" transform="translate(1.734 7.616)" fill="#130f26" stroke="#130f26" stroke-linecap="round" stroke-linejoin="round" stroke-width="2" fill-rule="evenodd"/>
    <path id="Path_27966" data-name="Path 27966" d="M18.679,20.2a.789.789,0,1,1-.788.788A.79.79,0,0,1,18.679,20.2Z" transform="translate(6.802 7.616)" fill="#130f26" stroke="#130f26" stroke-linecap="round" stroke-linejoin="round" stroke-width="2" fill-rule="evenodd"/>
  </g>
</svg>
