<svg xmlns="http://www.w3.org/2000/svg" xmlns:xlink="http://www.w3.org/1999/xlink" width="37.692" height="39.008" viewBox="0 0 37.692 39.008">
  <defs>
    <clipPath id="clip-path">
      <rect id="Rectangle_73" data-name="Rectangle 73" width="37.692" height="39.008" fill="#fff"/>
    </clipPath>
  </defs>
  <g id="Group_16361" data-name="Group 16361" clip-path="url(#clip-path)">
    <path id="Path_27921" data-name="Path 27921" d="M31.126.9A1.585,1.585,0,0,0,29.486,0H8.206A1.585,1.585,0,0,0,6.566.9L.4,11.5A2.681,2.681,0,0,0,0,12.942v3.481A5.555,5.555,0,0,0,1.226,19.9l.031,14.227a4.954,4.954,0,0,0,5.028,4.876H31.407a4.954,4.954,0,0,0,5.028-4.876L36.466,19.9a5.555,5.555,0,0,0,1.226-3.482V13.176a2.66,2.66,0,0,0-.432-1.729Zm2.9,33.237a2.577,2.577,0,0,1-2.625,2.438H17.988V29.954a1.42,1.42,0,0,0-1.416-1.416H10.4a1.42,1.42,0,0,0-1.416,1.416V36.57h-2.7a2.577,2.577,0,0,1-2.625-2.438c0-6.605,0,.122,0-12.467a5.575,5.575,0,0,0,6.35-1.831,5.6,5.6,0,0,0,8.838,0,5.6,5.6,0,0,0,8.838,0,5.575,5.575,0,0,0,6.35,1.831c0,12.589,0,5.862,0,12.467m-5.177-17.71L28.8,12.564,27.126,5.678c-.492-2.02-2.543-.971-2.3,0l1.714,6.839-.027,3.9c0,4.269-6.5,4.269-6.5,0L20,5.612a1.15,1.15,0,0,0-2.3,0l-.021,10.811c0,4.269-6.5,4.269-6.5,0l.031-3.888,1.714-6.839c.243-.971-1.808-2.019-2.3,0L8.947,12.58l-.109,3.842c0,4.3-6.5,4.3-6.5,0l.02-3.776L8.166,2.438h21.36l5.679,9.752.146,4.233c0,4.3-6.5,4.3-6.5,0" transform="translate(0 0)" fill="#fff" fill-rule="evenodd"/>
  </g>
</svg>
