<svg xmlns="http://www.w3.org/2000/svg" xmlns:xlink="http://www.w3.org/1999/xlink" width="19.491" height="20.172" viewBox="0 0 19.491 20.172">
  <defs>
    <clipPath id="clip-path">
      <rect id="Rectangle_18972" data-name="Rectangle 18972" width="19.491" height="20.172" fill="#fff" stroke="#fff" stroke-width="0.3"/>
    </clipPath>
  </defs>
  <g id="Group_16464" data-name="Group 16464" clip-path="url(#clip-path)">
    <path id="Path_27986" data-name="Path 27986" d="M16.1.463A.82.82,0,0,0,15.248,0h-11A.82.82,0,0,0,3.4.463L.209,5.945A1.387,1.387,0,0,0,0,6.693v1.8a2.873,2.873,0,0,0,.634,1.8L.65,17.65a2.562,2.562,0,0,0,2.6,2.522H16.241a2.562,2.562,0,0,0,2.6-2.522l.016-7.357a2.872,2.872,0,0,0,.634-1.8V6.814a1.375,1.375,0,0,0-.223-.894ZM17.6,17.65a1.333,1.333,0,0,1-1.357,1.261H9.3V15.489a.734.734,0,0,0-.732-.732H5.379a.735.735,0,0,0-.732.732v3.422H3.25A1.332,1.332,0,0,1,1.893,17.65c0-3.416,0,.063,0-6.447a2.883,2.883,0,0,0,3.284-.947,2.894,2.894,0,0,0,4.57,0,2.894,2.894,0,0,0,4.57,0A2.883,2.883,0,0,0,17.6,11.2c0,6.51,0,3.031,0,6.447M14.921,8.492l-.026-2-.867-3.56c-.254-1.045-1.315-.5-1.189,0l.886,3.537-.014,2.019a1.68,1.68,0,0,1-3.36,0L10.34,2.9a.6.6,0,0,0-1.189,0L9.14,8.492a1.68,1.68,0,0,1-3.36,0L5.8,6.482l.886-3.537c.126-.5-.935-1.044-1.189,0l-.867,3.56L4.57,8.492a1.68,1.68,0,0,1-3.36,0l.01-1.953,3-5.279H15.268L18.205,6.3l.076,2.189a1.68,1.68,0,0,1-3.36,0" transform="translate(0)" fill="#fff" stroke="#fff" stroke-width="0.3" fill-rule="evenodd"/>
  </g>
</svg>
