<svg id="Group_16504" data-name="Group 16504" xmlns="http://www.w3.org/2000/svg" width="28.886" height="30.883" viewBox="0 0 28.886 30.883">
  <g id="Group_16505" data-name="Group 16505" transform="translate(0 0)">
    <path id="Path_28014" data-name="Path 28014" d="M28.832,10.419a73.362,73.362,0,0,0-1.476-7.581,3.589,3.589,0,0,0-1.3-2.1,3.893,3.893,0,0,0-2.4-.73C20.75,0,17.793,0,14.6,0,11.684,0,8.642,0,5.294.011a3.512,3.512,0,0,0-3.719,2.8C.925,5.5.412,8.105.051,10.57A4.943,4.943,0,0,0,2.34,15.483a5.114,5.114,0,0,0,3,1.017,6.49,6.49,0,0,0,4.6-2.3A8.468,8.468,0,0,0,12,15.866a4.873,4.873,0,0,0,2.381.652,5.018,5.018,0,0,0,2.2-.538,8.748,8.748,0,0,0,2.187-1.573c.21-.2.312-.236.336-.236a.974.974,0,0,1,.129.217,1.145,1.145,0,0,0,.225.346A5.908,5.908,0,0,0,23.5,16.463a5.308,5.308,0,0,0,2.211-.489,5.433,5.433,0,0,0,2.479-2.209,5.227,5.227,0,0,0,.638-3.346m-2.64,2.543a3.361,3.361,0,0,1-2.27,1.417,3.221,3.221,0,0,1-.553.049,3.565,3.565,0,0,1-3.3-3.617c-.09-1.007-.164-2.03-.233-3.031-.079-1.121-.159-2.274-.27-3.418l-.009-.089c-.11-1.115-.18-1.783.033-2.018s.918-.234,2.088-.234h.02c1.686,0,2.613,0,3.089.4s.654,1.29,1.008,3.059c.173.871.365,1.746.551,2.6.114.524.232,1.066.345,1.6a4.246,4.246,0,0,1-.5,3.278M14.443,14.416a3.221,3.221,0,0,1-2.343-.958,3.89,3.89,0,0,1-1-2.875c.037-1.126.109-2.272.18-3.381.083-1.3.168-2.65.2-3.981.021-1.06.291-1.123.81-1.187.368-.01,3.816.082,4.526.113s.6,1.3.682,2.75v.017c.037.728.092,1.459.143,2.174.086,1.167.173,2.375.207,3.559a3.8,3.8,0,0,1-.96,2.767,3.272,3.272,0,0,1-2.364,1Zm-8.924.007c-.08,0-.161-.01-.244-.01a3.5,3.5,0,0,1-2.442-1.267,3.216,3.216,0,0,1-.687-2.472c.33-2.507.9-4.969,1.44-7.353A1.789,1.789,0,0,1,5.5,2.024c.6,0,1.608.021,1.858.021,2.582.059,2.056.225,2.108.982L9.273,5.61C9.132,7.545,9,9.374,8.824,11.233a3.4,3.4,0,0,1-3.3,3.19" transform="translate(0 0)" fill="#a7a7a7"/>
    <path id="Path_28015" data-name="Path 28015" d="M30.233,47.18v-.31l-.31.027c-1.243.106-1.766.668-1.695,1.822.059.955.046,1.936.033,2.885-.011.4-.011.824-.011,1.244,0,2.483,0,3.982-.461,4.73-.395.641-1.187.847-3.265.847-.547,0-1.163-.013-1.878-.026h-.1a1.2,1.2,0,0,1-.825-.207c-.084-.091-.166-.257-.132-.83.067-1.083.043-2.186.02-3.251l-.009-.373c0-.072.006-.143.006-.215a3.8,3.8,0,0,0-3.8-3.805,3.841,3.841,0,0,0-.418,0,3.8,3.8,0,0,0-3.564,4.02c-.013.828-.014,2.267,0,4.279-.441.034-1.41.1-2.443.1-2.694,0-3.367-.422-3.531-.6l-.023-.023c-.354-.313-.383-1.223-.372-1.481v-.051c-.026-2.1-.091-6.057-.111-7.222v-.044c.041-1.459-1.044-1.724-1.862-1.8l-.319-.026v.312c0,.952-.007,1.919-.007,2.861,0,2.27-.01,4.408.029,6.594,0,.038,0,.076,0,.114a3.656,3.656,0,0,0,3.7,3.613c2.783.021,5.688.033,8.632.033,2.888,0,5.924-.01,9.025-.031a3.553,3.553,0,0,0,3.66-3.187c.091-2.359.073-4.757.054-7.079-.009-.954-.016-1.941-.016-2.918M15.835,56.1c-.009-.778-.017-1.582,0-2.251.04-1.316.715-2.071,1.859-2.071h.034c1.16.011,1.818.764,1.859,2.118v4.082H17.718c-1.02,0-1.569,0-1.882,0,.014-.582,0-1.239,0-1.878" transform="translate(-3.243 -29.512)" fill="#a7a7a7"/>
  </g>
</svg>
