<svg xmlns="http://www.w3.org/2000/svg" xmlns:xlink="http://www.w3.org/1999/xlink" width="23.928" height="24.763" viewBox="0 0 23.928 24.763">
  <defs>
    <clipPath id="clip-path">
      <rect id="Rectangle_73" data-name="Rectangle 73" width="23.928" height="24.763" fill="#fff" stroke="#fff" stroke-width="0.3"/>
    </clipPath>
  </defs>
  <g id="Group_16361" data-name="Group 16361" clip-path="url(#clip-path)">
    <path id="Path_27921" data-name="Path 27921" d="M19.76.569A1.006,1.006,0,0,0,18.718,0H5.21A1.006,1.006,0,0,0,4.168.569L.256,7.3A1.7,1.7,0,0,0,0,8.216v2.21a3.526,3.526,0,0,0,.778,2.21L.8,21.668a3.145,3.145,0,0,0,3.192,3.1H19.938a3.145,3.145,0,0,0,3.192-3.1l.02-9.032a3.526,3.526,0,0,0,.778-2.21V8.364a1.688,1.688,0,0,0-.274-1.1Zm1.844,21.1a1.636,1.636,0,0,1-1.666,1.548H11.419v-4.2a.9.9,0,0,0-.9-.9H6.6a.9.9,0,0,0-.9.9v4.2H3.99a1.636,1.636,0,0,1-1.666-1.548c0-4.193,0,.077,0-7.914a3.539,3.539,0,0,0,4.031-1.162,3.553,3.553,0,0,0,5.61,0,3.553,3.553,0,0,0,5.61,0,3.539,3.539,0,0,0,4.031,1.162c0,7.992,0,3.721,0,7.914M18.317,10.425l-.032-2.45L17.22,3.6c-.312-1.283-1.614-.616-1.46,0l1.088,4.342-.017,2.479a2.062,2.062,0,0,1-4.124,0l-.013-6.863a.73.73,0,0,0-1.46,0l-.013,6.863a2.062,2.062,0,0,1-4.124,0l.02-2.468L8.2,3.615c.154-.617-1.148-1.282-1.46,0L5.68,7.986l-.069,2.439a2.062,2.062,0,0,1-4.125,0l.013-2.4L5.184,1.547H18.744l3.605,6.191.093,2.687a2.062,2.062,0,0,1-4.125,0" fill="#fff" stroke="#fff" stroke-width="0.3" fill-rule="evenodd"/>
  </g>
</svg>
