<svg xmlns="http://www.w3.org/2000/svg" width="20.979" height="14.531" viewBox="0 0 20.979 14.531">
  <g id="Group_16631" data-name="Group 16631" transform="translate(-367.095 -356.016)">
    <g id="Group_16630" data-name="Group 16630" transform="translate(375.343 356.055)">
      <g id="Group_16598" data-name="Group 16598">
        <path id="Path_36022" data-name="Path 36022" d="M8.841,17.664H19.382a1.1,1.1,0,1,0,0-2.19H8.841a1.1,1.1,0,1,0,0,2.19Z" transform="translate(-7.746 -3.263)" fill="#505050" fill-rule="evenodd"/>
        <path id="Path_36023" data-name="Path 36023" d="M8.841,13.477H19.382a1.1,1.1,0,1,0,0-2.19H8.841a1.1,1.1,0,1,0,0,2.19Z" transform="translate(-7.746 -5.189)" fill="#505050" fill-rule="evenodd"/>
        <path id="Path_36024" data-name="Path 36024" d="M8.841,9.3h4.022a1.1,1.1,0,1,0,0-2.19H8.841a1.1,1.1,0,1,0,0,2.19Z" transform="translate(-1.227 -7.11)" fill="#505050" fill-rule="evenodd"/>
      </g>
      <g id="Group_16629" data-name="Group 16629" transform="translate(-7.187 0.712)">
        <path id="Path_36031" data-name="Path 36031" d="M12.273,17.781V4.75" transform="translate(-9.564 -4.75)" fill="none" stroke="#505050" stroke-linecap="round" stroke-linejoin="round" stroke-width="1.5"/>
        <path id="Path_36032" data-name="Path 36032" d="M11.67,13.7,8.96,16.422,6.25,13.7" transform="translate(-6.25 -3.39)" fill="none" stroke="#505050" stroke-linecap="round" stroke-linejoin="round" stroke-width="1.5"/>
      </g>
    </g>
  </g>
</svg>
