<svg xmlns="http://www.w3.org/2000/svg" width="15.844" height="17.921" viewBox="0 0 15.844 17.921">
  <g id="Group_16598" data-name="Group 16598" transform="translate(0 0)">
    <path id="Path_36022" data-name="Path 36022" d="M9.109,18.2H22.227a1.363,1.363,0,1,0,0-2.725H9.109a1.363,1.363,0,1,0,0,2.725Z" transform="translate(-7.746 -0.278)" fill="#17262b" fill-rule="evenodd"/>
    <path id="Path_36023" data-name="Path 36023" d="M9.109,14.013H22.227a1.363,1.363,0,1,0,0-2.725H9.109a1.363,1.363,0,1,0,0,2.725Z" transform="translate(-7.746 -3.698)" fill="#17262b" fill-rule="evenodd"/>
    <path id="Path_36024" data-name="Path 36024" d="M9.109,9.836h5.006a1.363,1.363,0,1,0,0-2.725H9.109a1.363,1.363,0,1,0,0,2.725Z" transform="translate(0.367 -7.11)" fill="#17262b" fill-rule="evenodd"/>
  </g>
</svg>
