<svg xmlns="http://www.w3.org/2000/svg" width="32.471" height="32.471" viewBox="0 0 32.471 32.471">
  <g id="Group_16508" data-name="Group 16508" transform="translate(0.1 0.1)">
    <path id="Ellipse_180" data-name="Ellipse 180" d="M16.135,1.9A14.237,14.237,0,1,0,30.373,16.135,14.253,14.253,0,0,0,16.135,1.9m0-1.9A16.135,16.135,0,1,1,0,16.135,16.135,16.135,0,0,1,16.135,0Z" fill="#a7a7a7" stroke="#a7a7a7" stroke-width="0.2"/>
    <path id="Path_28017" data-name="Path 28017" d="M.527-4.087a4.021,4.021,0,0,1,.678-2.141,5.224,5.224,0,0,1,1.98-1.8,6.229,6.229,0,0,1,3.037-.712,6.483,6.483,0,0,1,2.847.6,4.617,4.617,0,0,1,1.908,1.618A3.969,3.969,0,0,1,11.65-4.3a3.44,3.44,0,0,1-.384,1.657,5.072,5.072,0,0,1-.912,1.229q-.528.517-1.9,1.741a7.72,7.72,0,0,0-.606.606,2.462,2.462,0,0,0-.339.478,2.347,2.347,0,0,0-.172.434q-.061.217-.184.762A1.238,1.238,0,0,1,5.833,3.766a1.353,1.353,0,0,1-.973-.378,1.486,1.486,0,0,1-.395-1.123A4.138,4.138,0,0,1,4.754.646a4.108,4.108,0,0,1,.767-1.2,17.609,17.609,0,0,1,1.29-1.229q.712-.623,1.029-.94a3.19,3.19,0,0,0,.534-.706,1.708,1.708,0,0,0,.217-.845,1.966,1.966,0,0,0-.662-1.5,2.416,2.416,0,0,0-1.707-.612,2.362,2.362,0,0,0-1.8.617,4.922,4.922,0,0,0-.979,1.819Q3.063-2.7,2.007-2.7A1.411,1.411,0,0,1,.956-3.136,1.344,1.344,0,0,1,.527-4.087ZM5.955,8.1a1.75,1.75,0,0,1-1.185-.439,1.541,1.541,0,0,1-.506-1.229,1.584,1.584,0,0,1,.489-1.179,1.653,1.653,0,0,1,1.2-.478A1.634,1.634,0,0,1,7.613,6.435a1.553,1.553,0,0,1-.5,1.224A1.689,1.689,0,0,1,5.955,8.1Z" transform="translate(9.965 16.83)" fill="#a7a7a7"/>
  </g>
</svg>
