<svg xmlns="http://www.w3.org/2000/svg" width="37.777" height="33.951" viewBox="0 0 37.777 33.951">
  <path id="Path_27738" data-name="Path 27738" d="M4400.143,356.122c-1.335,1.211-2.584,2.357-3.844,3.487-1.539,1.377-3.263,1.056-3.971-.882a70.111,70.111,0,0,1-2.3-7.345,3.223,3.223,0,0,0-2.645-2.706,48.084,48.084,0,0,1-4.813-1.6,5.2,5.2,0,0,1-1.436-.747,2.52,2.52,0,0,1,.224-4.369,6.043,6.043,0,0,1,.884-.458q15.5-6.523,31-13.033a6.241,6.241,0,0,1,1.375-.443,2.61,2.61,0,0,1,3.118,2.934c-.189,1.737-.6,3.451-.936,5.171q-2.227,11.435-4.468,22.869a3.459,3.459,0,0,1-5.652,2.128C4404.511,359.475,4402.355,357.819,4400.143,356.122Zm-16.921-11.882c2.671.905,5.163,1.73,7.634,2.6a1.745,1.745,0,0,0,1.681-.18q8.192-5.127,16.433-10.179a4.108,4.108,0,0,1,1.276-.286,4.364,4.364,0,0,1-.632,1.081c-3.926,3.691-7.837,7.4-11.841,11.009a5.872,5.872,0,0,0-2.317,4.26c-.065,1.415-.395,2.818-.648,4.489,1.864-1.691,3.512-3.188,5.177-4.7,2.779,2.131,5.485,4.214,8.2,6.288.874.666,1.149.558,1.362-.517q2.558-13.086,5.11-26.173c.053-.273.079-.552.136-.994Z" transform="translate(-4379.973 -327.983)" fill="#151d3b"/>
</svg>
