<svg xmlns="http://www.w3.org/2000/svg" width="24.061" height="21.625" viewBox="0 0 24.061 21.625">
  <path id="Path_27738" data-name="Path 27738" d="M4392.82,345.906c-.851.771-1.646,1.5-2.449,2.221a1.436,1.436,0,0,1-2.528-.562,44.754,44.754,0,0,1-1.468-4.678,2.052,2.052,0,0,0-1.685-1.724,30.587,30.587,0,0,1-3.065-1.02,3.313,3.313,0,0,1-.914-.476,1.605,1.605,0,0,1,.143-2.783,3.749,3.749,0,0,1,.563-.292q9.871-4.155,19.744-8.3a3.974,3.974,0,0,1,.876-.282,1.662,1.662,0,0,1,1.985,1.869c-.12,1.107-.382,2.2-.6,3.294q-1.418,7.284-2.847,14.566a2.2,2.2,0,0,1-3.6,1.356C4395.6,348.042,4394.229,346.987,4392.82,345.906Zm-10.778-7.568c1.7.577,3.289,1.1,4.862,1.656a1.113,1.113,0,0,0,1.071-.115q5.218-3.266,10.467-6.484a2.612,2.612,0,0,1,.812-.182,2.774,2.774,0,0,1-.4.689c-2.5,2.351-4.993,4.714-7.542,7.012a3.738,3.738,0,0,0-1.477,2.714,28.666,28.666,0,0,1-.413,2.859l3.3-2.992c1.77,1.357,3.494,2.684,5.226,4.005.556.424.732.356.867-.329q1.63-8.335,3.256-16.671c.034-.174.049-.352.086-.633Z" transform="translate(-4379.973 -327.983)" fill="#fff"/>
</svg>
