<svg xmlns="http://www.w3.org/2000/svg" xmlns:xlink="http://www.w3.org/1999/xlink" width="113" height="113" viewBox="0 0 113 113">
  <defs>
    <filter id="Ellipse_10" x="0" y="0" width="113" height="113" filterUnits="userSpaceOnUse">
      <feOffset dy="3" input="SourceAlpha"/>
      <feGaussianBlur stdDeviation="7.5" result="blur"/>
      <feFlood flood-color="#000849" flood-opacity="0.251"/>
      <feComposite operator="in" in2="blur"/>
      <feComposite in="SourceGraphic"/>
    </filter>
  </defs>
  <g id="Group_16422" data-name="Group 16422" transform="translate(22.5 19.596)">
    <g id="Group_17" data-name="Group 17">
      <g transform="matrix(1, 0, 0, 1, -22.5, -19.6)" filter="url(#Ellipse_10)">
        <circle id="Ellipse_10-2" data-name="Ellipse 10" cx="34" cy="34" r="34" transform="translate(22.5 19.5)" fill="#fff"/>
      </g>
    </g>
    <path id="Path_27970" data-name="Path 27970" d="M10.483,19.5l.327-3.7a1.191,1.191,0,0,1,2.382,0l.327,3.7a1.518,1.518,0,0,1-3.036,0ZM10.75,3.486c.056-.051.1-.091.12-.111A1.856,1.856,0,0,1,12.008,3a1.768,1.768,0,0,1,1.064.347,5.694,5.694,0,0,1,.554.491A22.044,22.044,0,0,1,17.592,9.6,5.027,5.027,0,0,1,18,10.942V11a1.815,1.815,0,0,1-.991,1.6,6.036,6.036,0,0,1-1.168.313c-.095.019-.156.031-.16.034a27.294,27.294,0,0,1-3.688.216,23.633,23.633,0,0,1-3.806-.244,9.8,9.8,0,0,1-1.064-.261,1.886,1.886,0,0,1-.9-.808A2,2,0,0,1,6,10.942a4.829,4.829,0,0,1,.336-1.2A22.073,22.073,0,0,1,10.36,3.852C10.493,3.72,10.645,3.582,10.75,3.486Z" transform="translate(22 22)" fill="#1a1a40" fill-rule="evenodd"/>
  </g>
</svg>
