<svg xmlns="http://www.w3.org/2000/svg" width="27.4" height="31.901" viewBox="0 0 27.4 31.901">
  <g id="Group_16509" data-name="Group 16509" transform="translate(1.251 1.25)">
    <path id="Path_28018" data-name="Path 28018" d="M21.04,2.762H10.389a6.116,6.116,0,0,0-6.138,5.97V25.882a6.129,6.129,0,0,0,5.991,6.261c.05,0,.1,0,.147,0h12.79a6.222,6.222,0,0,0,5.97-6.261V11.208Z" transform="translate(-4.25 -2.743)" fill="none" stroke="#a7a7a7" stroke-linecap="round" stroke-linejoin="round" stroke-width="2.5" fill-rule="evenodd"/>
    <path id="Path_28019" data-name="Path 28019" d="M14.477,2.75V7.407a4.121,4.121,0,0,0,4.111,4.122H23" transform="translate(1.896 -2.75)" fill="none" stroke="#a7a7a7" stroke-linecap="round" stroke-linejoin="round" stroke-width="2.5"/>
    <path id="Path_28020" data-name="Path 28020" d="M17.532,15.358H8.887" transform="translate(-1.464 4.827)" fill="none" stroke="#a7a7a7" stroke-linecap="round" stroke-linejoin="round" stroke-width="2.5"/>
    <path id="Path_28021" data-name="Path 28021" d="M14.259,11.606H8.887" transform="translate(-1.464 2.572)" fill="none" stroke="#a7a7a7" stroke-linecap="round" stroke-linejoin="round" stroke-width="2.5"/>
  </g>
</svg>
